# xmcd
#
# Track frame offsets: 
#        150
#        11764
#        24234
#        36649
#        46737
#        56631
#        67926
#        78333
#        89965
#        101207
#        113648
#        126248
#        137774
#        149964
#        162419
#        174684
#        187783
#        198476
#        215223
#        229731
#
# Disc length: 3244 seconds
#
# Revision: 0
# Processed by: cddbd v1.5.2PL0 Copyright (c) Steve Scherf et al.
# Submitted via: ExactAudioCopy v1.1
#
DISCID=2e0caa14
DTITLE=John Lee Hooker - The Very Best Of 
DYEAR=1967
DGENRE=Blues
TTITLE0=Bom Bom
TTITLE1=Trouble Blues
TTITLE2=Whiskey And Women
TTITLE3=Dimples
TTITLE4=I Wanna Walk
TTITLE5=Let's Make It
TTITLE6=Boogie Chillon
TTITLE7=Big Legs Tight Skirts
TTITLE8=Good Rockin' Mama
TTITLE9=Crawling Kingsnake
TTITLE10=Mambo Chillon
TTITLE11=Wheel And Deal
TTITLE12=Everybody Rockin'
TTITLE13=Crowling Black Spider
TTITLE14=You Can Lead My Baby
TTITLE15=Unfriendly Woman
TTITLE16=Little Fine Woman
TTITLE17=Mama You Got A Daughteer
TTITLE18=I'm So Worried Baby
TTITLE19=Time Is Marchin'
EXTD=
EXTT0=
EXTT1=
EXTT2=
EXTT3=
EXTT4=
EXTT5=
EXTT6=
EXTT7=
EXTT8=
EXTT9=
EXTT10=
EXTT11=
EXTT12=
EXTT13=
EXTT14=
EXTT15=
EXTT16=
EXTT17=
EXTT18=
EXTT19=
PLAYORDER=
